<svg
  xmlns="http://www.w3.org/2000/svg"
  width="400"
  height="400"
  viewBox="0 0 400 400"
  preserveAspectRatio="xMidYMid meet"
>
  <style>
    .line1 {
      stroke: #495057; /* A muted gray color */
      stroke-width: 2;
      fill: none;
    }
    .line2 {
      stroke: var(--bs-primary, #0d6efd); /* Uses CSS variable, with fallback */
      stroke-width: 2.5;
      fill: none;
      filter: url(#glow);
    }
    .dot {
      fill: var(--bs-primary, #0d6efd);
      filter: url(#glow);
    }
    .label {
      font-family: sans-serif;
      font-size: 16px;
      fill: #6c757d;
      text-anchor: middle;
    }
  </style>

  <defs>
    <filter id="glow" x="-50%" y="-50%" width="200%" height="200%">
      <feGaussianBlur stdDeviation="3.5" result="coloredBlur" />
      <feMerge>
        <feMergeNode in="coloredBlur" />
        <feMergeNode in="SourceGraphic" />
      </feMerge>
    </filter>
    <linearGradient id="vertical-gray-gradient" gradientUnits="userSpaceOnUse" x1="0" y1="350" x2="0" y2="0">
      <stop offset="0%" stop-color="#495057" stop-opacity="0.5" />
      <stop offset="100%" stop-color="#495057" stop-opacity="0" />
    </linearGradient>
    <linearGradient id="vertical-primary-gradient" gradientUnits="userSpaceOnUse" x1="0" y1="350" x2="0" y2="0">
      <stop offset="0%" stop-color="#0d6efd" stop-opacity="0.5" />
      <stop offset="100%" stop-color="#0d6efd" stop-opacity="0" />
    </linearGradient>
  </defs>

  <!-- Vertical Lines -->
  <line x1="95" y1="350" x2="95" y2="0" stroke="url(#vertical-gray-gradient)" stroke-width="1.5" />
  <line x1="280" y1="350" x2="280" y2="0" stroke="url(#vertical-gray-gradient)" stroke-width="1.5" />
  <line x1="210" y1="350" x2="210" y2="0" stroke="url(#vertical-primary-gradient)" stroke-width="1.5" />

  <!-- Gray Line -->
  <path class="line1" d="M 20,350 C 80,50 160,340 250,190 C 300,110 320,245 350,245" />
  <circle cx="95" cy="207" r="4" class="line1" style="stroke-width: 1.5; fill: #fff" />
  <circle cx="280" cy="165" r="4" class="line1" style="stroke-width: 1.5; fill: #fff" />
  <text x="95" y="192" class="label">1000</text>
  <text x="280" y="147" class="label">2000</text>

  <!-- Primary Color Line -->
  <path class="line2" d="M 120,350 Q 180,50 240,150 T 350,190" />
  <circle cx="210" cy="125" r="4" class="dot" />
  <text x="210" y="110" class="label">1500</text>
</svg> 